<?xml version="1.0" encoding="UTF-8" standalone="no"?>
<svg
   xmlns:dc="http://purl.org/dc/elements/1.1/"
   xmlns:cc="http://creativecommons.org/ns#"
   xmlns:rdf="http://www.w3.org/1999/02/22-rdf-syntax-ns#"
   xmlns:svg="http://www.w3.org/2000/svg"
   xmlns="http://www.w3.org/2000/svg"
   xmlns:sodipodi="http://sodipodi.sourceforge.net/DTD/sodipodi-0.dtd"
   xmlns:inkscape="http://www.inkscape.org/namespaces/inkscape"
   inkscape:export-ydpi="61.956161"
   inkscape:export-xdpi="61.956161"
   inkscape:export-filename="logo.png"
   width="265.55731mm"
   height="49.196075mm"
   viewBox="0 0 265.55732 49.196075"
   version="1.1"
   id="svg8"
   inkscape:version="1.0 (4035a4fb49, 2020-05-01)"
   sodipodi:docname="logo.svg">
  <defs
     id="defs2" />
  <sodipodi:namedview
     id="base"
     pagecolor="#ffffff"
     bordercolor="#666666"
     borderopacity="1.0"
     inkscape:pageopacity="0.0"
     inkscape:pageshadow="2"
     inkscape:zoom="0.98994949"
     inkscape:cx="353.63139"
     inkscape:cy="215.65108"
     inkscape:document-units="mm"
     inkscape:current-layer="layer1"
     inkscape:document-rotation="0"
     showgrid="false"
     inkscape:pagecheckerboard="true"
     fit-margin-top="0"
     fit-margin-left="0"
     fit-margin-right="0"
     fit-margin-bottom="0"
     inkscape:window-width="1920"
     inkscape:window-height="1001"
     inkscape:window-x="-9"
     inkscape:window-y="-9"
     inkscape:window-maximized="1" />
  <metadata
     id="metadata5">
    <rdf:RDF>
      <cc:Work
         rdf:about="">
        <dc:format>image/svg+xml</dc:format>
        <dc:type
           rdf:resource="http://purl.org/dc/dcmitype/StillImage" />
        <dc:title></dc:title>
      </cc:Work>
    </rdf:RDF>
  </metadata>
  <g
     transform="translate(-39.194187,-73.842606)"
     inkscape:label="Layer 1"
     inkscape:groupmode="layer"
     id="layer1">
    <g
       style="font-style:normal;font-weight:normal;font-size:19.7556px;line-height:1.25;font-family:sans-serif;letter-spacing:0px;word-spacing:0px;fill:#41a600;fill-opacity:1;stroke:none;stroke-width:0.264583"
       id="text839"
       aria-label="Programming
Language">
      <path
         id="path843"
         style="font-style:normal;font-variant:normal;font-weight:bold;font-stretch:normal;font-size:19.7556px;font-family:'Press Start 2P';-inkscape-font-specification:'Press Start 2P Bold';text-align:center;text-anchor:middle;fill:#41a600;fill-opacity:1;stroke-width:0.264583"
         d="m 89.909355,82.485681 v -8.643075 h 7.40835 7.408355 v 1.234725 1.234725 h 1.23472 1.23473 v 3.704175 3.704175 h -1.23473 -1.23472 v 1.234725 1.234725 h -4.938905 -4.9389 v 2.46945 2.46945 h -2.46945 -2.46945 z m 12.347255,-2.46945 v -3.704175 h -3.70418 -3.704175 v 3.704175 3.704175 h 3.704175 3.70418 z" />
      <path
         id="path845"
         style="font-style:normal;font-variant:normal;font-weight:bold;font-stretch:normal;font-size:19.7556px;font-family:'Press Start 2P';-inkscape-font-specification:'Press Start 2P Bold';text-align:center;text-anchor:middle;fill:#41a600;fill-opacity:1;stroke-width:0.264583"
         d="m 112.13441,84.955131 v -6.173625 h 2.46945 2.46945 v 1.234725 1.234725 h 1.23472 1.23473 v -1.234725 -1.234725 h 3.70417 3.70418 v 1.234725 1.234725 h -3.70418 -3.70417 v 1.234725 1.234725 h -1.23473 -1.23472 v 3.704175 3.704175 h -2.46945 -2.46945 z" />
      <path
         id="path847"
         style="font-style:normal;font-variant:normal;font-weight:bold;font-stretch:normal;font-size:19.7556px;font-family:'Press Start 2P';-inkscape-font-specification:'Press Start 2P Bold';text-align:center;text-anchor:middle;fill:#41a600;fill-opacity:1;stroke-width:0.264583"
         d="m 131.89001,80.016231 v -1.234725 h 6.17362 6.17363 v 1.234725 1.234725 h 1.23472 1.23473 v 3.704175 3.704175 h -1.23473 -1.23472 v 1.234725 1.234725 h -6.17363 -6.17362 v -1.234725 -1.234725 h -1.23473 -1.23472 v -3.704175 -3.704175 h 1.23472 1.23473 z m 9.8778,4.9389 v -3.704175 h -3.70418 -3.70417 v 3.704175 3.704175 h 3.70417 3.70418 z" />
      <path
         id="path849"
         style="font-style:normal;font-variant:normal;font-weight:bold;font-stretch:normal;font-size:19.7556px;font-family:'Press Start 2P';-inkscape-font-specification:'Press Start 2P Bold';text-align:center;text-anchor:middle;fill:#41a600;fill-opacity:1;stroke-width:0.264583"
         d="m 151.64561,80.016231 v -1.234725 h 7.40835 7.40835 v 6.173625 6.173625 h -1.23473 -1.23472 v 1.234725 1.234725 h -6.17363 -6.17362 v -1.234725 -1.234725 h 4.9389 4.9389 v -1.234725 -1.234725 h -4.9389 -4.9389 v -1.234725 -1.234725 h -1.23473 -1.23472 v -2.46945 -2.46945 h 1.23472 1.23473 z m 9.8778,3.704175 v -2.46945 h -3.70418 -3.70417 v 2.46945 2.46945 h 3.70417 3.70418 z" />
      <path
         id="path851"
         style="font-style:normal;font-variant:normal;font-weight:bold;font-stretch:normal;font-size:19.7556px;font-family:'Press Start 2P';-inkscape-font-specification:'Press Start 2P Bold';text-align:center;text-anchor:middle;fill:#41a600;fill-opacity:1;stroke-width:0.264583"
         d="m 171.40121,84.955131 v -6.173625 h 2.46945 2.46945 v 1.234725 1.234725 h 1.23472 1.23473 v -1.234725 -1.234725 h 3.70417 3.70418 v 1.234725 1.234725 h -3.70418 -3.70417 v 1.234725 1.234725 h -1.23473 -1.23472 v 3.704175 3.704175 h -2.46945 -2.46945 z" />
      <path
         id="path853"
         style="font-style:normal;font-variant:normal;font-weight:bold;font-stretch:normal;font-size:19.7556px;font-family:'Press Start 2P';-inkscape-font-specification:'Press Start 2P Bold';text-align:center;text-anchor:middle;fill:#41a600;fill-opacity:1;stroke-width:0.264583"
         d="m 191.15681,80.016231 v -1.234725 h 6.17362 6.17363 v 1.234725 1.234725 h 1.23472 1.23473 v 4.9389 4.9389 h -7.40835 -7.40835 v -1.234725 -1.234725 h -1.23473 -1.23472 v -1.234725 -1.234725 h 1.23472 1.23473 v -1.234725 -1.234725 h 4.9389 4.9389 v -1.234725 -1.234725 h -4.9389 -4.9389 z m 9.8778,7.40835 v -1.234725 h -3.70418 -3.70417 v 1.234725 1.234725 h 3.70417 3.70418 z" />
      <path
         id="path855"
         style="font-style:normal;font-variant:normal;font-weight:bold;font-stretch:normal;font-size:19.7556px;font-family:'Press Start 2P';-inkscape-font-specification:'Press Start 2P Bold';text-align:center;text-anchor:middle;fill:#41a600;fill-opacity:1;stroke-width:0.264583"
         d="m 208.44296,84.955131 v -6.173625 h 7.40835 7.40834 v 1.234725 1.234725 h 1.23473 1.23472 v 4.9389 4.9389 h -2.46945 -2.46944 v -4.9389 -4.9389 h -1.23473 -1.23472 v 4.9389 4.9389 h -2.46945 -2.46945 v -4.9389 -4.9389 h -1.23473 -1.23472 v 4.9389 4.9389 h -1.23473 -1.23472 z" />
      <path
         id="path857"
         style="font-style:normal;font-variant:normal;font-weight:bold;font-stretch:normal;font-size:19.7556px;font-family:'Press Start 2P';-inkscape-font-specification:'Press Start 2P Bold';text-align:center;text-anchor:middle;fill:#41a600;fill-opacity:1;stroke-width:0.264583"
         d="m 228.19855,84.955131 v -6.173625 h 7.40835 7.40835 v 1.234725 1.234725 h 1.23473 1.23472 v 4.9389 4.9389 h -2.46945 -2.46945 v -4.9389 -4.9389 h -1.23472 -1.23473 v 4.9389 4.9389 h -2.46945 -2.46945 v -4.9389 -4.9389 h -1.23472 -1.23473 v 4.9389 4.9389 h -1.23472 -1.23473 z" />
      <path
         id="path859"
         style="font-style:normal;font-variant:normal;font-weight:bold;font-stretch:normal;font-size:19.7556px;font-family:'Press Start 2P';-inkscape-font-specification:'Press Start 2P Bold';text-align:center;text-anchor:middle;fill:#41a600;fill-opacity:1;stroke-width:0.264583"
         d="m 252.89305,80.016231 v -1.234725 h 3.70418 3.70417 v 4.9389 4.9389 h 2.46945 2.46945 v 1.234725 1.234725 h -7.40835 -7.40835 v -1.234725 -1.234725 h 2.46945 2.46945 v -3.704175 -3.704175 h -1.23472 -1.23473 z m 2.46945,-4.9389 v -1.234725 h 2.46945 2.46945 v 1.234725 1.234725 h -2.46945 -2.46945 z" />
      <path
         id="path861"
         style="font-style:normal;font-variant:normal;font-weight:bold;font-stretch:normal;font-size:19.7556px;font-family:'Press Start 2P';-inkscape-font-specification:'Press Start 2P Bold';text-align:center;text-anchor:middle;fill:#41a600;fill-opacity:1;stroke-width:0.264583"
         d="m 267.70975,84.955131 v -6.173625 h 7.40835 7.40835 v 1.234725 1.234725 h 1.23473 1.23472 v 4.9389 4.9389 h -2.46945 -2.46945 v -4.9389 -4.9389 h -3.70417 -3.70418 v 4.9389 4.9389 h -2.46945 -2.46945 z" />
      <path
         id="path863"
         style="font-style:normal;font-variant:normal;font-weight:bold;font-stretch:normal;font-size:19.7556px;font-family:'Press Start 2P';-inkscape-font-specification:'Press Start 2P Bold';text-align:center;text-anchor:middle;fill:#41a600;fill-opacity:1;stroke-width:0.264583"
         d="m 289.9348,80.016231 v -1.234725 h 7.40835 7.40835 v 6.173625 6.173625 h -1.23472 -1.23473 v 1.234725 1.234725 h -6.17362 -6.17363 v -1.234725 -1.234725 h 4.9389 4.9389 v -1.234725 -1.234725 h -4.9389 -4.9389 v -1.234725 -1.234725 h -1.23472 -1.23473 v -2.46945 -2.46945 h 1.23473 1.23472 z m 9.8778,3.704175 v -2.46945 h -3.70417 -3.70418 v 2.46945 2.46945 h 3.70418 3.70417 z" />
      <path
         id="path865"
         style="font-style:normal;font-variant:normal;font-weight:bold;font-stretch:normal;font-size:19.7556px;font-family:'Press Start 2P';-inkscape-font-specification:'Press Start 2P Bold';text-align:center;text-anchor:middle;fill:#41a600;fill-opacity:1;stroke-width:0.264583"
         d="m 122.01221,111.92615 v -8.64307 h 2.46945 2.46945 v 7.40835 7.40835 h 4.9389 4.9389 v 1.23472 1.23473 h -7.40835 -7.40835 z" />
      <path
         id="path867"
         style="font-style:normal;font-variant:normal;font-weight:bold;font-stretch:normal;font-size:19.7556px;font-family:'Press Start 2P';-inkscape-font-specification:'Press Start 2P Bold';text-align:center;text-anchor:middle;fill:#41a600;fill-opacity:1;stroke-width:0.264583"
         d="m 141.76781,109.4567 v -1.23472 h 6.17362 6.17363 v 1.23472 1.23473 h 1.23472 1.23473 v 4.9389 4.9389 h -7.40835 -7.40835 v -1.23473 -1.23472 h -1.23473 -1.23472 v -1.23473 -1.23472 h 1.23472 1.23473 v -1.23473 -1.23472 h 4.9389 4.9389 v -1.23473 -1.23472 h -4.9389 -4.9389 z m 9.8778,7.40835 v -1.23472 h -3.70418 -3.70417 v 1.23472 1.23473 h 3.70417 3.70418 z" />
      <path
         id="path869"
         style="font-style:normal;font-variant:normal;font-weight:bold;font-stretch:normal;font-size:19.7556px;font-family:'Press Start 2P';-inkscape-font-specification:'Press Start 2P Bold';text-align:center;text-anchor:middle;fill:#41a600;fill-opacity:1;stroke-width:0.264583"
         d="m 159.05396,114.3956 v -6.17362 h 7.40835 7.40835 v 1.23472 1.23473 h 1.23472 1.23473 v 4.9389 4.9389 h -2.46945 -2.46945 v -4.9389 -4.9389 h -3.70418 -3.70417 v 4.9389 4.9389 h -2.46945 -2.46945 z" />
      <path
         id="path871"
         style="font-style:normal;font-variant:normal;font-weight:bold;font-stretch:normal;font-size:19.7556px;font-family:'Press Start 2P';-inkscape-font-specification:'Press Start 2P Bold';text-align:center;text-anchor:middle;fill:#41a600;fill-opacity:1;stroke-width:0.264583"
         d="m 181.27901,109.4567 v -1.23472 h 7.40835 7.40835 v 6.17362 6.17363 h -1.23473 -1.23472 v 1.23472 1.23473 h -6.17363 -6.17362 v -1.23473 -1.23472 h 4.9389 4.9389 v -1.23473 -1.23472 h -4.9389 -4.9389 v -1.23473 -1.23472 h -1.23473 -1.23472 v -2.46945 -2.46945 h 1.23472 1.23473 z m 9.8778,3.70418 v -2.46945 h -3.70418 -3.70417 v 2.46945 2.46945 h 3.70417 3.70418 z" />
      <path
         id="path873"
         style="font-style:normal;font-variant:normal;font-weight:bold;font-stretch:normal;font-size:19.7556px;font-family:'Press Start 2P';-inkscape-font-specification:'Press Start 2P Bold';text-align:center;text-anchor:middle;fill:#41a600;fill-opacity:1;stroke-width:0.264583"
         d="m 198.56516,113.16088 v -4.9389 h 2.46945 2.46945 v 4.9389 4.9389 h 3.70417 3.70418 v -4.9389 -4.9389 h 2.46945 2.46945 v 6.17362 6.17363 h -7.40835 -7.40835 v -1.23473 -1.23472 h -1.23473 -1.23472 z" />
      <path
         id="path875"
         style="font-style:normal;font-variant:normal;font-weight:bold;font-stretch:normal;font-size:19.7556px;font-family:'Press Start 2P';-inkscape-font-specification:'Press Start 2P Bold';text-align:center;text-anchor:middle;fill:#41a600;fill-opacity:1;stroke-width:0.264583"
         d="m 220.79021,109.4567 v -1.23472 h 6.17362 6.17362 v 1.23472 1.23473 h 1.23473 1.23472 v 4.9389 4.9389 h -7.40835 -7.40834 v -1.23473 -1.23472 h -1.23473 -1.23472 v -1.23473 -1.23472 h 1.23472 1.23473 v -1.23473 -1.23472 h 4.93889 4.9389 v -1.23473 -1.23472 h -4.9389 -4.93889 z m 9.87779,7.40835 v -1.23472 h -3.70417 -3.70418 v 1.23472 1.23473 h 3.70418 3.70417 z" />
      <path
         id="path877"
         style="font-style:normal;font-variant:normal;font-weight:bold;font-stretch:normal;font-size:19.7556px;font-family:'Press Start 2P';-inkscape-font-specification:'Press Start 2P Bold';text-align:center;text-anchor:middle;fill:#41a600;fill-opacity:1;stroke-width:0.264583"
         d="m 240.5458,109.4567 v -1.23472 h 7.40835 7.40835 v 6.17362 6.17363 h -1.23472 -1.23473 v 1.23472 1.23473 h -6.17362 -6.17363 v -1.23473 -1.23472 h 4.9389 4.9389 v -1.23473 -1.23472 h -4.9389 -4.9389 v -1.23473 -1.23472 h -1.23472 -1.23473 v -2.46945 -2.46945 h 1.23473 1.23472 z m 9.8778,3.70418 v -2.46945 h -3.70417 -3.70418 v 2.46945 2.46945 h 3.70418 3.70417 z" />
      <path
         id="path879"
         style="font-style:normal;font-variant:normal;font-weight:bold;font-stretch:normal;font-size:19.7556px;font-family:'Press Start 2P';-inkscape-font-specification:'Press Start 2P Bold';text-align:center;text-anchor:middle;fill:#41a600;fill-opacity:1;stroke-width:0.264583"
         d="m 260.3014,109.4567 v -1.23472 h 6.17363 6.17362 v 1.23472 1.23473 h 1.23473 1.23472 v 2.46945 2.46945 h -6.17362 -6.17363 v 1.23472 1.23473 h 4.9389 4.9389 v 1.23472 1.23473 h -6.17362 -6.17363 v -1.23473 -1.23472 h -1.23472 -1.23473 v -3.70418 -3.70417 h 1.23473 1.23472 z m 9.8778,2.46945 v -1.23472 h -3.70417 -3.70418 v 1.23472 1.23473 h 3.70418 3.70417 z" />
    </g>
    <text
       xml:space="preserve"
       style="font-style:normal;font-weight:normal;font-size:10.5833px;line-height:1.25;font-family:sans-serif;letter-spacing:0px;word-spacing:0px;fill:#000000;fill-opacity:1;stroke:none;stroke-width:0.264583"
       x="68.035713"
       y="101.29762"
       id="text837"><tspan
         sodipodi:role="line"
         id="tspan835"
         x="68.035713"
         y="101.29762"
         style="stroke-width:0.264583" /></text>
    <g
       style="font-style:normal;font-weight:normal;font-size:49.3889px;line-height:1.25;font-family:sans-serif;letter-spacing:0px;word-spacing:0px;fill:#41a600;fill-opacity:1;stroke:none;stroke-width:0.264583"
       id="text835"
       aria-label="Z">
      <path
         id="path882"
         style="font-style:normal;font-variant:normal;font-weight:bold;font-stretch:normal;font-size:49.3889px;font-family:'Press Start 2P';-inkscape-font-specification:'Press Start 2P Bold';fill:#41a600;fill-opacity:1;stroke-width:0.264583"
         d="M 39.194187,80.321647 V 77.23484 h 21.607644 21.607644 v 6.173613 6.173613 h -3.086806 -3.086806 v 3.086806 3.086806 H 73.149056 70.06225 v 3.086806 3.086806 h -3.086806 -3.086806 v 3.08681 3.0868 h -3.086807 -3.086806 v 3.08681 3.08681 H 70.06225 82.409475 v 3.0868 3.08681 H 60.801831 39.194187 v -6.17361 -6.17362 h 3.086806 3.086807 v -3.0868 -3.08681 h 3.086806 3.086806 v -3.086806 -3.086806 h 3.086807 3.086806 v -3.086806 -3.086806 h 3.086806 3.086807 V 86.495259 83.408453 H 51.541412 39.194187 Z" />
    </g>
  </g>
</svg>
